<svg width="16" height="17" viewBox="0 0 16 17" fill="none" xmlns="http://www.w3.org/2000/svg">
<path d="M11.7425 10.8432C12.7107 9.52177 13.1444 7.8834 12.9567 6.25589C12.769 4.62838 11.9739 3.13176 10.7303 2.06544C9.48666 0.99912 7.88635 0.441745 6.2495 0.504825C4.61265 0.567904 3.05997 1.24679 1.90209 2.40565C0.744221 3.56452 0.0665459 5.1179 0.00464636 6.75503C-0.0572531 8.39215 0.501188 9.99229 1.56825 11.2353C2.63531 12.4783 4.13229 13.2725 5.7597 13.4591C7.38711 13.6456 9.02494 13.2107 10.3455 12.2414H10.3445C10.3738 12.2814 10.4065 12.3197 10.4425 12.3564L14.2924 16.2068C14.4799 16.3944 14.7342 16.4999 14.9995 16.5C15.2647 16.5001 15.5192 16.3948 15.7068 16.2073C15.8944 16.0197 15.9999 15.7653 16 15.5C16.0001 15.2348 15.8948 14.9803 15.7073 14.7926L11.8575 10.9422C11.8217 10.906 11.7833 10.8736 11.7425 10.8432ZM12.0004 6.99882C12.0004 7.72116 11.8582 8.43643 11.5818 9.10379C11.3054 9.77115 10.9003 10.3775 10.3896 10.8883C9.87889 11.3991 9.2726 11.8043 8.60533 12.0807C7.93807 12.3571 7.2229 12.4994 6.50065 12.4994C5.77841 12.4994 5.06324 12.3571 4.39597 12.0807C3.72871 11.8043 3.12242 11.3991 2.61171 10.8883C2.10101 10.3775 1.6959 9.77115 1.41951 9.10379C1.14312 8.43643 1.00086 7.72116 1.00086 6.99882C1.00086 5.53998 1.5803 4.14089 2.61171 3.10933C3.64312 2.07777 5.04202 1.49825 6.50065 1.49825C7.95929 1.49825 9.35818 2.07777 10.3896 3.10933C11.421 4.14089 12.0004 5.53998 12.0004 6.99882Z" fill="black"/>
</svg>
